<svg xmlns="http://www.w3.org/2000/svg" viewBox="0 0 344 270" x="0px" y="0px"><path d="m245.57,189.9c-.69,0-1.23-.22-1.49-.89-.51-1.35,1.09-2.13,2.64-2.88l5.52-2.68c2.71-1.31,6.9-4.1,9.15-6.08l2.98-2.63c2.11-1.86,3.98-5.79,4.08-8.6l.33-8.59c.1-2.75-1.28-4.98-2.58-5.26-1.36-.28-3.86,1.1-5.25,3.56l-1.89,3.34c-1.77,3.13-5.42,5.67-8.32,5.78-2.25.08-4.54,1.25-5.2,2.25-.86,1.31-1.25,3.31-1.06,4.28.47,2.44-2.68,4.51-6.02,5.29l-6.48,1.51c-1.83.43-3.65.1-5.14-.94-1.48-1.03-2.43-2.63-2.66-4.49l-.98-7.81c-.38-3.03-1.77-4.77-2.25-4.81-2.31-.2-4.31-3.31-5.02-6.13-.6-2.4-3-5.44-5.25-6.65-2.98-1.6-5.24-5.7-5.14-9.34l.05-1.77c.07-2.69-.82-4.33-1.22-4.43h0c-2.52,0-3.84-3.5-3.84-6.96v-4.14c0-2.48-2.02-4.54-4.49-4.6l-115.22-2.76c-2.8-.08-4.54,1.06-4.57,1.69-.05,1.17-.58,2.21-1.46,2.87-.87.66-2.02.88-3.16.62-2.23-.53-3.87-2.45-3.74-4.38-.13-.26-1.65-1.19-4.36-1.31l-51.63-2.39c-1.91-.09-3.52-.91-4.55-2.32-1.03-1.41-1.32-3.2-.82-5.04L26.69,28.36c.96-3.58,4.75-6.34,8.46-6.2l168.87,7.29c2.89.12,5.87-.9,6.6-1.9,1.31-1.79,4.05-3.11,6.19-3.05.01,0,.03,0,.04,0,.97,0,2.2-1.27,2.46-3.13.41-2.98,3.34-5.41,6.54-5.41,2.25,0,5.55-1.5,7.19-3.28,2.1-2.27,6.48-4.2,9.96-4.39l4.38-.24c3.78-.21,7.33,2.65,7.95,6.37l1.8,10.79c.45,2.71,2.3,6.03,3.96,7.09,1.63,1.05,4.45,1.47,6.04.9,1.23-.44,2.4-.28,3.3.43,1.1.87,1.6,2.44,1.39,4.32-.35,3.08-3.34,6.41-6.79,7.59l-10.81,3.67c-1.92.65-2.83,1.6-2.97,2.08-.04.13-.02.17.04.24.52.67.73,1.53.6,2.49-.23,1.75-1.54,3.67-3.5,5.16l-5.16,3.92c-2.31,1.75-3.47,4.08-3.22,4.85.6,1.86.06,5.06-1.24,7.29-.87,1.49-.87,3.85,0,5.05.82,1.14,3.67,2.4,6.45,2.4,3.32,0,7.75,2.06,10.09,4.68l12.07,13.53c2.45,2.75,2.81,7.49.81,10.57l-.38.58c-1.36,2.1-.89,5.22,1.03,6.82l.95.79c2.33,1.95,4.22,2.9,4.75,3,2.11-.38,4.25,3.71,5.09,5.51l.26.56c.92,1.97,2.44,6.17,1.65,8-.11.43.45,2.38,1.91,4.33,1.38,1.85,4.9,3.95,7.68,4.59l5.83,1.35c2.82.65,6.5,1.85,7.77,2.78.34.25,1.72.14,2.93-.8,1.6-1.24,5.27-3.14,8.35-4.33l7.4-2.85c2.39-.92,4.12-3.84,3.78-6.38l-.44-3.27c-.19-1.38-.48-2.21-.7-2.64-.51.38-1.1.5-1.69.32-1.63-.49-2.28-3-2.54-5.02l-.5-3.91c-.34-2.68-2.61-5.77-4.95-6.74-2.88-1.19-5.34-1.98-5.84-2.01-.58-.02-1.11-.3-1.48-.78-.56-.73-.72-1.87-.43-3.12.11-.46.41-1.1,1.23-1.56,1.36-.76,3.79-.69,6.33.18l2,.69c3.25,1.11,7.32,4.2,9.27,7.03l5,7.26c1.89,2.74,3.69,7.67,4.01,10.98l1.1,11.27c.32,3.23.12,8.34-.43,11.39-.55,3-1.83,7.91-2.86,10.95l-.44,1.29c-1.78,5.25-2.83,5.57-3.23,5.69-.44.13-.9.05-1.25-.22-.42-.32-1.4-1.07.59-7.36.93-2.95,1.02-5.39.81-6-.5-.33-2.71-.69-5.52-.28l-22.54,3.31c-2.84.42-6.95,2.5-8.96,4.54l-2.75,2.79c-2.45,2.48-7.09,4.51-10.58,4.63l-1.48.05c-2.88.1-7.27,1.64-9.59,3.37l-6.44,4.81c-2.63,1.96-7.34,4.27-10.51,5.14l-4.42,1.21c-.84.23-1.69.46-2.4.46Zm20.26-40.14c.31,0,.6.03.89.09,2.7.58,4.7,4,4.56,7.79l-.33,8.59c-.13,3.5-2.3,8.06-4.93,10.38l-2.98,2.63c-1.64,1.44-4.15,3.23-6.51,4.68,1.84-.89,3.63-1.91,4.86-2.84l6.44-4.81c2.74-2.05,7.57-3.75,11-3.86l1.48-.05c2.83-.1,6.89-1.88,8.88-3.89l2.75-2.79c2.42-2.45,6.98-4.76,10.38-5.26l22.54-3.31c2.39-.35,6.76-.47,7.96,1.33.37.55.51,1.4.52,2.36.55-2.07,1.04-4.17,1.32-5.73.51-2.81.7-7.71.4-10.7l-1.1-11.27c-.28-2.91-1.92-7.4-3.58-9.81l-5-7.26c-1.63-2.37-5.3-5.16-8.02-6.09l-2-.69c-2.39-.82-3.99-.59-4.34-.35-.08.37-.07.65-.04.81,1.47.24,4.69,1.48,6.33,2.16,3.17,1.32,6.02,5.15,6.48,8.74l.5,3.91c.17,1.36.46,2.19.67,2.63.51-.37,1.09-.48,1.67-.31,1.64.49,2.31,2.99,2.58,5.01l.44,3.27c.49,3.66-1.91,7.72-5.36,9.05l-7.4,2.85c-2.8,1.08-6.33,2.89-7.72,3.97-1.97,1.53-4.52,1.89-5.95.84-.72-.53-3.8-1.65-6.85-2.36l-5.83-1.35c-3.37-.78-7.37-3.21-9.11-5.53-1.57-2.09-2.93-5.12-2.2-6.81.15-.51-.26-3.03-1.62-5.96l-.26-.56c-1.09-2.34-2.2-3.72-2.66-4.07-2,.11-5.74-2.94-6.51-3.58l-.95-.79c-2.89-2.41-3.58-6.94-1.53-10.09l.38-.58c1.41-2.17,1.14-5.62-.58-7.55l-12.07-13.53c-1.86-2.09-5.63-3.85-8.23-3.85-3.36,0-7.08-1.51-8.48-3.44-1.45-2.01-1.51-5.42-.14-7.78,1.03-1.77,1.37-4.2,1.03-5.26-.76-2.35,1.53-5.68,4.09-7.61l5.16-3.92c1.59-1.2,2.42-2.62,2.53-3.49.03-.2.03-.46-.1-.63-.56-.72-.72-1.61-.46-2.49.46-1.52,2.16-2.91,4.56-3.73l10.81-3.67c2.53-.86,4.87-3.38,5.11-5.51.13-1.16-.16-1.84-.46-2.07-.21-.17-.51-.18-.91-.04-2.32.83-5.94.32-8.24-1.15-2.26-1.46-4.49-5.32-5.07-8.79l-1.8-10.79c-.41-2.46-2.86-4.43-5.35-4.28l-4.38.24c-2.82.16-6.61,1.8-8.27,3.59-2.12,2.29-6.08,4.08-9.03,4.08-1.96,0-3.82,1.49-4.06,3.25-.42,3.06-2.64,5.42-5.06,5.29-1.36-.04-3.25.9-4.08,2.03-1.52,2.08-5.63,3.05-8.72,2.92l-168.87-7.29c-2.55-.1-5.27,1.88-5.94,4.35L8.94,103.86c-.29,1.09-.14,2.13.43,2.91.57.78,1.51,1.24,2.64,1.3l51.63,2.39c2.67.12,4.99.94,6.05,2.13.63.7.72,1.39.69,1.85-.04.62.73,1.52,1.82,1.77.42.1.8.04,1.08-.18.28-.21.45-.56.47-.99.11-2.42,3.18-4.13,7.13-4.08l115.22,2.76c3.82.09,6.93,3.28,6.93,7.1v4.14c0,2.91,1.03,4.39,1.36,4.47h0c.49,0,1.23.15,1.94.89,1.15,1.18,1.82,3.52,1.75,6.11l-.05,1.77c-.07,2.68,1.68,5.92,3.83,7.07,2.87,1.54,5.72,5.16,6.49,8.25.66,2.65,2.2,4.19,2.81,4.25,2.42.21,4.1,3.68,4.52,6.99l.98,7.81c.14,1.15.72,2.13,1.61,2.75.89.62,2.01.82,3.14.56l6.48-1.51c2.72-.64,4.13-1.97,4.14-2.4-.33-1.7.3-4.38,1.43-6.1,1.17-1.79,4.33-3.28,7.19-3.38,2.01-.08,4.92-2.18,6.23-4.51l1.89-3.34c1.63-2.88,4.58-4.86,7.06-4.86Zm8.57-27.04s0,0,0,0c0,0,0,0,0,0Zm.19-.02h0,0Z"/><path d="m258.39,208.91c-.48,0-.96-.1-1.41-.3-1.17-.54-2.73-2.05-3.63-3.52-.46-.75-1.15-2.19-.58-3.32.27-.54.77-.89,1.38-.95.76-.08,1.86.05,2.69.3.54-.3,1.92-1.49,3.5-3.6,1.95-2.61,5.59-6.37,8.12-8.39l.44-.35c2.54-2.03,6.15-3.52,8.12-2.44,1.52.83,3.21,3.08,3.84,5.11.53,1.71,1.48,3.33,1.9,3.7.59.52,1.55,1.03,1.98,1.12.05,0,.23-.1.29-.28.35-.97,1.21-2.15,2-2.74.49-.36,1.09-.42,1.62-.16.36.18,1.46.73,1.46,4.84,0,3.15-3.11,5.77-6.94,5.85l-5,.09c-3.08.06-8.04.64-11.05,1.3l-.11.02c-3.15.69-5.44,1.82-5.78,2.23-.6.95-1.7,1.49-2.83,1.49Zm-3.14-5.57c.06.13.14.28.24.44.67,1.1,1.89,2.25,2.53,2.54.37.17.91.03,1.11-.28.99-1.56,5.23-2.85,7.34-3.31l.11-.02c3.14-.69,8.32-1.3,11.54-1.36l5-.09c2.43-.04,4.49-1.58,4.49-3.35,0-.56-.03-1.04-.07-1.44-.06.12-.12.24-.16.34-.48,1.34-1.88,2.16-3.18,1.88-.89-.19-2.22-.92-3.1-1.69-1.01-.89-2.11-3.16-2.64-4.84-.49-1.56-1.79-3.18-2.65-3.66h0c-.46-.25-2.84.19-5.35,2.21l-.44.35c-2.35,1.88-5.86,5.51-7.67,7.92-1.5,2-4.26,5.24-6.07,4.57-.26-.1-.65-.18-1.03-.22Z"/><path d="m328.34,213.93h-.09c-2.95-.02-7.5-.39-10.14-.83-2.74-.45-6.94-2.18-9.36-3.85-.82-.56-2.75-1.89-2.11-3.37.6-1.38,2.47-.98,3.18-.82h0c2.19.47,6.48.5,9.36.06,2.99-.46,5.45-1.82,5.83-2.56.56-1.1.96-3.21.85-4.51-.13-1.49.7-1.91,1.06-2.03,1.15-.37,2.29.62,3.93,3.4l1.92,3.25c1.57,2.66,2.94,6.3,2.51,8.1-.5,2.09-3.85,3.17-6.93,3.17Zm-17.27-6.16c2.19,1.28,5.36,2.52,7.45,2.87,2.53.42,6.91.78,9.75.79h.08c2.71,0,4.34-.92,4.5-1.28.16-.68-.64-3.53-2.23-6.22l-1.92-3.25c-.15-.25-.29-.48-.42-.68-.17,1.34-.55,2.73-1.04,3.69-.98,1.92-4.69,3.43-7.68,3.89-2.52.38-5.94.44-8.49.18Zm-2.7-.38h0Z"/><text x="0" y="231" fill="#000000" font-size="5px" font-weight="bold" font-family="'Helvetica Neue', Helvetica, Arial-Unicode, Arial, Sans-serif">Created by Maria Darron</text><text x="0" y="236" fill="#000000" font-size="5px" font-weight="bold" font-family="'Helvetica Neue', Helvetica, Arial-Unicode, Arial, Sans-serif">from the Noun Project</text></svg>